<svg xmlns="http://www.w3.org/2000/svg" viewBox="0 0 1200 750" role="img" aria-label="Pré-visualização ilustrativa do projeto">
  <!-- SUBSTITUIR POR: captura de tela real do projeto (JPG/WebP 1200x750) -->
  <rect width="1200" height="750" fill="#0A1428"/>
  <rect x="90" y="70" width="1020" height="610" rx="10" fill="#F7F0EA"/>
  <rect x="90" y="70" width="1020" height="44" rx="10" fill="#CDBBAA" opacity=".35"/>
  <circle cx="118" cy="92" r="6" fill="#3B2F2A" opacity=".35"/><circle cx="140" cy="92" r="6" fill="#3B2F2A" opacity=".35"/><circle cx="162" cy="92" r="6" fill="#3B2F2A" opacity=".35"/>
  <rect x="130" y="146" width="90" height="14" rx="4" fill="#3B2F2A"/>
  <rect x="640" y="148" width="60" height="10" rx="4" fill="#CDBBAA"/><rect x="730" y="148" width="60" height="10" rx="4" fill="#CDBBAA"/><rect x="820" y="148" width="60" height="10" rx="4" fill="#CDBBAA"/>
  <rect x="960" y="140" width="110" height="26" rx="4" fill="#B08A5F"/>
  <rect x="130" y="240" width="430" height="26" rx="5" fill="#3B2F2A"/>
  <rect x="130" y="284" width="340" height="26" rx="5" fill="#3B2F2A"/>
  <rect x="130" y="342" width="400" height="10" rx="4" fill="#CDBBAA"/><rect x="130" y="364" width="360" height="10" rx="4" fill="#CDBBAA"/><rect x="130" y="386" width="300" height="10" rx="4" fill="#CDBBAA"/>
  <rect x="130" y="430" width="150" height="40" rx="5" fill="#B08A5F"/>
  <rect x="300" y="430" width="120" height="40" rx="5" fill="none" stroke="#CDBBAA" stroke-width="2"/>
  <rect x="640" y="220" width="430" height="270" rx="8" fill="#B08A5F" opacity=".16"/>
  <circle cx="855" cy="355" r="86" fill="none" stroke="#B08A5F" stroke-width="3" opacity=".8"/>
  <circle cx="855" cy="355" r="42" fill="#B08A5F" opacity=".85"/>
  <rect x="130" y="530" width="290" height="110" rx="8" fill="#CDBBAA" opacity=".28"/>
  <rect x="455" y="530" width="290" height="110" rx="8" fill="#CDBBAA" opacity=".28"/>
  <rect x="780" y="530" width="290" height="110" rx="8" fill="#CDBBAA" opacity=".28"/>
</svg>
